<svg width="256" height="256" viewBox="0 0 256 256" xmlns="http://www.w3.org/2000/svg"><g fill="none" fill-rule="evenodd"><path d="M128.757 254.836c-.561 0-1.123 0-1.684-.28-46.05-14.883-80.026-54.194-98.278-113.44C15.317 97.03 15.037 57.72 15.037 56.035c0-2.809 2.246-5.336 5.054-5.617C91.412 42.276 123.984 3.527 124.265 2.966 125.388 1.562 126.792 1 128.477 1c1.684 0 3.37.842 4.211 1.966.281.28 32.853 39.31 104.174 47.453 2.808.281 5.055 2.808 5.055 5.616 0 1.685-.281 40.996-13.76 85.08-17.69 59.247-51.665 98.558-97.715 113.44-.561 0-1.123.28-1.685.28z" fill="#333"/><path d="M146.502 108.69v23.592c0 3.853.38 6.553 1.137 8.1.758 1.548 2.022 2.322 3.79 2.322 2.653 0 4.722-1.58 6.206-4.737 1.485-3.159 2.227-8.37 2.227-15.634 0-8.653-2.48-15.396-7.438-20.228-4.958-4.833-12.301-7.249-22.029-7.249-6.695 0-12.49 1.437-17.386 4.311-4.895 2.874-8.622 6.885-11.18 12.033s-3.838 11.07-3.838 17.766c0 6.821 1.248 12.759 3.743 17.812 2.495 5.053 6.174 8.954 11.038 11.701 4.864 2.748 10.77 4.122 17.718 4.122a50.37 50.37 0 0 0 9.617-.947c3.253-.632 6.206-1.422 8.859-2.37l3.316 9.476c-7.075 2.653-14.37 3.979-21.887 3.979-8.906 0-16.754-1.784-23.545-5.353-6.79-3.57-12.033-8.654-15.728-15.255-3.695-6.6-5.542-14.29-5.542-23.07 0-8.402 1.91-15.966 5.732-22.693 3.821-6.727 9.143-12.001 15.965-15.823 6.822-3.821 14.528-5.732 23.118-5.732 8.59 0 16.044 1.721 22.36 5.164 6.317 3.442 11.134 8.006 14.45 13.69 3.316 5.686 4.974 11.844 4.974 18.477 0 5.621-.821 10.643-2.463 15.065-1.643 4.421-3.98 7.895-7.012 10.422-3.032 2.526-6.632 3.79-10.801 3.79-3.474 0-6.27-.964-8.385-2.89-2.116-1.927-3.459-4.185-4.027-6.775-1.263 2.78-3.032 5.022-5.306 6.728-2.274 1.705-5.053 2.558-8.338 2.558-5.558 0-9.79-1.927-12.696-5.78-2.905-3.853-4.358-8.97-4.358-15.349 0-7.896 1.926-14.102 5.78-18.618 3.852-4.516 9.158-6.774 15.917-6.774 5.559 0 10.896 1.39 16.012 4.169zm-11.464 28.045v-22.55c-1.706-.695-3.348-1.042-4.927-1.042-2.969 0-5.227 1.326-6.774 3.98-1.548 2.652-2.322 6.916-2.322 12.79 0 4.422.521 7.611 1.564 9.57 1.042 1.958 2.7 2.937 4.974 2.937 3.41 0 5.906-1.895 7.485-5.685z" fill="#FFED00"/><path d="M1 1h253.83v253.83H1z"/></g></svg>