<svg width="194" height="217" viewBox="0 0 194 217" xmlns="http://www.w3.org/2000/svg"><g fill="none" fill-rule="evenodd"><path d="M62.68 191.541c-13.424-10.918-22.964-25.656-28.729-35.988C15.863 123.135 5.656 48.44 5.656 48.44S56.63 30.195 83.05 18.852c11.917-5.116 18.838-8.829 13.833-8.829-16.102 0 91.437 38.418 91.437 38.418s-12.677 83.99-25.757 107.112c-4.488 7.933-11.123 22.632-28.575 35.988-10.502 8.037-32.27 20.4-37.105 20.4 0 0-18.938-7.983-34.203-20.4z" fill="#FFED00"/><path d="M97.22 217.005c-.48 0-.96 0-1.44-.24-39.368-12.723-68.414-46.33-84.018-96.98C.24 82.097 0 48.49 0 47.05c0-2.4 1.92-4.561 4.32-4.801C65.294 35.287 93.14 2.16 93.38 1.68 94.34.48 95.54 0 96.98 0s2.88.72 3.6 1.68c.24.24 28.087 33.607 89.06 40.569 2.4.24 4.32 2.4 4.32 4.8 0 1.441-.24 35.048-11.762 72.736-15.124 50.65-44.17 84.257-83.538 96.98-.48 0-.96.24-1.44.24zM9.842 51.37c.96 22.564 9.842 129.386 87.378 155.792 77.536-26.406 86.418-133.228 87.378-155.792-50.17-6.962-77.776-30.007-87.378-39.369-9.602 9.362-37.208 32.407-87.378 39.369z" fill="#000"/><text font-family="Aktiv Grotesk" font-size="74" font-weight="bold" fill="#000"><tspan x="60.176" y="129">@</tspan></text><path d="M-12 0h217v217H-12z"/></g></svg>